<svg xmlns="http://www.w3.org/2000/svg" width="18" height="18" fill="none"><path fill="#7C7C7C" d="M12.96 8.1H7.74c-.497 0-.54.402-.54.9s.043.9.54.9h5.22c.497 0 .54-.402.54-.9s-.043-.9-.54-.9Zm1.8 4.5H7.74c-.497 0-.54.402-.54.9s.043.9.54.9h7.02c.497 0 .54-.402.54-.9s-.043-.9-.54-.9ZM7.74 5.4h7.02c.497 0 .54-.402.54-.9s-.043-.9-.54-.9H7.74c-.497 0-.54.402-.54.9s.043.9.54.9ZM4.86 8.1H3.24c-.497 0-.54.402-.54.9s.043.9.54.9h1.62c.497 0 .54-.402.54-.9s-.043-.9-.54-.9Zm0 4.5H3.24c-.497 0-.54.402-.54.9s.043.9.54.9h1.62c.497 0 .54-.402.54-.9s-.043-.9-.54-.9Zm0-9H3.24c-.497 0-.54.402-.54.9s.043.9.54.9h1.62c.497 0 .54-.402.54-.9s-.043-.9-.54-.9Z"/></svg>